[Header]
FileType HTR
DataType HTRS
FileVersion 1
NumSegments 64
NumFrames 4
DataFrameRate 24
EulerRotationOrder ZYX
CalibrationUnits mm
RotationUnits Degrees
GlobalAxisofGravity Y
BoneLengthAxis Y
ScaleFactor 1.0
[SegmentNames&Hierarchy]
Hips	GLOBAL
Spine	Hips
Spine1	Spine
Spine2	Spine1
Neck	Spine2
Head	Neck
LeftEye	Head
RightEye	Head
LeftShoulder	Spine2
LeftArm	LeftShoulder
LeftForeArm	LeftArm
LeftHand	LeftForeArm
LeftHandThumb1	LeftHand
LeftHandThumb2	LeftHandThumb1
LeftHandThumb3	LeftHandThumb2
LeftHandThumb4	LeftHandThumb3
LeftHandIndex1	LeftHand
LeftHandIndex2	LeftHandIndex1
LeftHandIndex3	LeftHandIndex2
LeftHandIndex4	LeftHandIndex3
LeftHandMiddle1	LeftHand
LeftHandMiddle2	LeftHandMiddle1
LeftHandMiddle3	LeftHandMiddle2
LeftHandMiddle4	LeftHandMiddle3
LeftHandRing1	LeftHand
LeftHandRing2	LeftHandRing1
LeftHandRing3	LeftHandRing2
LeftHandRing4	LeftHandRing3
LeftHandPinky1	LeftHand
LeftHandPinky2	LeftHandPinky1
LeftHandPinky3	LeftHandPinky2
LeftHandPinky4	LeftHandPinky3
RightShoulder	Spine2
RightArm	RightShoulder
RightForeArm	RightArm
RightHand	RightForeArm
RightHandPinky1	RightHand
RightHandPinky2	RightHandPinky1
RightHandPinky3	RightHandPinky2
RightHandPinky4	RightHandPinky3
RightHandRing1	RightHand
RightHandRing2	RightHandRing1
RightHandRing3	RightHandRing2
RightHandRing4	RightHandRing3
RightHandMiddle1	RightHand
RightHandMiddle2	RightHandMiddle1
RightHandMiddle3	RightHandMiddle2
RightHandMiddle4	RightHandMiddle3
RightHandIndex1	RightHand
RightHandIndex2	RightHandIndex1
RightHandIndex3	RightHandIndex2
RightHandIndex4	RightHandIndex3
RightHandThumb1	RightHand
RightHandThumb2	RightHandThumb1
RightHandThumb3	RightHandThumb2
RightHandThumb4	RightHandThumb3
LeftUpLeg	Hips
LeftLeg	LeftUpLeg
LeftFoot	LeftLeg
LeftToeBase	LeftFoot
RightUpLeg	Hips
RightLeg	RightUpLeg
RightFoot	RightLeg
RightToeBase	RightFoot
[BasePosition]
Hips	0	0	0	0	0	0	1
Spine	0	0	0	0	0	0	1
Spine1	0	0	0	0	0	0	1
Spine2	0	0	0	0	0	0	1
Neck	0	0	0	0	0	0	1
Head	0	0	0	0	0	0	1
LeftEye	0	0	0	0	0	0	1
RightEye	0	0	0	0	0	0	1
LeftShoulder	0	0	0	0	0	0	1
LeftArm	0	0	0	0	0	0	1
LeftForeArm	0	0	0	0	0	0	1
LeftHand	0	0	0	0	0	0	1
LeftHandThumb1	0	0	0	0	0	0	1
LeftHandThumb2	0	0	0	0	0	0	1
LeftHandThumb3	0	0	0	0	0	0	1
LeftHandThumb4	0	0	0	0	0	0	1
LeftHandIndex1	0	0	0	0	0	0	1
LeftHandIndex2	0	0	0	0	0	0	1
LeftHandIndex3	0	0	0	0	0	0	1
LeftHandIndex4	0	0	0	0	0	0	1
LeftHandMiddle1	0	0	0	0	0	0	1
LeftHandMiddle2	0	0	0	0	0	0	1
LeftHandMiddle3	0	0	0	0	0	0	1
LeftHandMiddle4	0	0	0	0	0	0	1
LeftHandRing1	0	0	0	0	0	0	1
LeftHandRing2	0	0	0	0	0	0	1
LeftHandRing3	0	0	0	0	0	0	1
LeftHandRing4	0	0	0	0	0	0	1
LeftHandPinky1	0	0	0	0	0	0	1
LeftHandPinky2	0	0	0	0	0	0	1
LeftHandPinky3	0	0	0	0	0	0	1
LeftHandPinky4	0	0	0	0	0	0	1
RightShoulder	0	0	0	0	0	0	1
RightArm	0	0	0	0	0	0	1
RightForeArm	0	0	0	0	0	0	1
RightHand	0	0	0	0	0	0	1
RightHandPinky1	0	0	0	0	0	0	1
RightHandPinky2	0	0	0	0	0	0	1
RightHandPinky3	0	0	0	0	0	0	1
RightHandPinky4	0	0	0	0	0	0	1
RightHandRing1	0	0	0	0	0	0	1
RightHandRing2	0	0	0	0	0	0	1
RightHandRing3	0	0	0	0	0	0	1
RightHandRing4	0	0	0	0	0	0	1
RightHandMiddle1	0	0	0	0	0	0	1
RightHandMiddle2	0	0	0	0	0	0	1
RightHandMiddle3	0	0	0	0	0	0	1
RightHandMiddle4	0	0	0	0	0	0	1
RightHandIndex1	0	0	0	0	0	0	1
RightHandIndex2	0	0	0	0	0	0	1
RightHandIndex3	0	0	0	0	0	0	1
RightHandIndex4	0	0	0	0	0	0	1
RightHandThumb1	0	0	0	0	0	0	1
RightHandThumb2	0	0	0	0	0	0	1
RightHandThumb3	0	0	0	0	0	0	1
RightHandThumb4	0	0	0	0	0	0	1
LeftUpLeg	0	0	0	0	0	0	1
LeftLeg	0	0	0	0	0	0	1
LeftFoot	0	0	0	0	0	0	1
LeftToeBase	0	0	0	0	0	0	1
RightUpLeg	0	0	0	0	0	0	1
RightLeg	0	0	0	0	0	0	1
RightFoot	0	0	0	0	0	0	1
RightToeBase	0	0	0	0	0	0	1
[Hips]
223	850.4110718	984.6225586	40.16726685	7.116394043	10.68221283	0.4969371557	1.0
224	890.8938599	988.2610474	41.55194855	3.502962828	12.92529583	-2.513154745	1.0
225	937.9312744	995.5877075	49.80552673	3.282591581	13.9071846	-5.542813301	1.0
226	984.7331543	991.2173462	60.94059753	6.365891933	14.78882122	-6.607059479	1.0
[Spine]
223	0	101.8159943	1.315000057	6.43806839	-0.1035496145	-0.9339700937	1.0
224	0	101.8159943	1.315000057	7.559128761	-0.5479747653	2.254896164	1.0
225	0	101.8159943	1.315000057	5.812349796	-2.005158424	5.137851715	1.0
226	0	101.8159943	1.315000057	2.284418344	-3.582296133	6.961122513	1.0
[Spine1]
223	0	100.8349991	-10.00800037	2.564212084	0.06447488815	0.7750051022	1.0
224	0	100.8349991	-10.00800037	3.877228737	-0.0960707441	0.5628146529	1.0
225	0	100.8349991	-10.00800037	3.354514837	-0.4077741802	0.3911368847	1.0
226	0	100.8349991	-10.00800037	1.372554541	-0.7627244592	0.03870197758	1.0
[Spine2]
223	0	91	-13.73399925	2.545740843	0.1268487722	0.7754667401	1.0
224	0	91	-13.73399925	3.862264872	-0.05486323312	0.5636695623	1.0
225	0	91	-13.73399925	3.335554123	-0.3991326392	0.388828069	1.0
226	0	91	-13.73399925	1.335467458	-0.7642422318	0.03879691288	1.0
[Neck]
223	0	166.7169952	-25.16200066	-17.99235344	-9.885507584	2.29855895	1.0
224	0	166.7169952	-25.16200066	-17.34227562	-10.56357956	0.06480933726	1.0
225	0	166.7169952	-25.16200066	-15.76378155	-10.6954689	-0.5481802225	1.0
226	0	166.7169952	-25.16200066	-13.69317627	-10.50545883	-1.487401485	1.0
[Head]
223	0	96.17900085	16.84999847	-20.37452698	-55.13011932	1.31004405	1.0
224	0	96.17900085	16.84999847	-17.98765373	-59.51620102	4.351277828	1.0
225	0	96.17900085	16.84999847	-11.25009155	-62.24881744	0.6661172509	1.0
226	0	96.17900085	16.84999847	-3.124214411	-64.06031036	-5.433707714	1.0
[LeftEye]
223	30.6760006	64.09500122	92.83599854	0	0	0	1.0
224	30.6760006	64.09500122	92.83599854	0	0	0	1.0
225	30.6760006	64.09500122	92.83599854	0	0	0	1.0
226	30.6760006	64.09500122	92.83599854	0	0	0	1.0
[RightEye]
223	-30.6760006	64.09500122	92.83499908	0	0	0	1.0
224	-30.6760006	64.09500122	92.83499908	0	0	0	1.0
225	-30.6760006	64.09500122	92.83499908	0	0	0	1.0
226	-30.6760006	64.09500122	92.83499908	0	0	0	1.0
[LeftShoulder]
223	45.70400238	109.4599991	-26.28000069	4.075179577	-16.14790154	-6.237858295	1.0
224	45.70400238	109.4599991	-26.28000069	3.907333851	-20.58605194	-5.037903786	1.0
225	45.70400238	109.4599991	-26.28000069	3.669603109	-20.53249359	-3.400693893	1.0
226	45.70400238	109.4599991	-26.28000069	3.749147654	-18.34100151	-3.880507231	1.0
[LeftArm]
223	105.923996	-5.24600029	-22.32099915	50.08475113	34.8356514	-35.37430573	1.0
224	105.923996	-5.24600029	-22.32099915	47.19686508	35.47238159	-40.17489624	1.0
225	105.923996	-5.24600029	-22.32099915	48.98720932	34.08947372	-42.85996628	1.0
226	105.923996	-5.24600029	-22.32099915	55.00801849	33.58763123	-40.03474808	1.0
[LeftForeArm]
223	278.414978	-0.0009999999311	0	0	-98.73221588	-0.0002288818359	1.0
224	278.414978	-0.0009999999311	0	0.0001678510016	-93.45133209	-0.000381473481	1.0
225	278.414978	-0.0009999999311	0	-0.001126421266	-89.67503357	0.0007511834847	1.0
226	278.414978	-0.0009999999311	0	-0.000388413464	-89.55570984	0.0001508405985	1.0
[LeftHand]
223	283.2879944	0	0	33.57995987	-28.36313629	-20.67302895	1.0
224	283.2879944	0	0	35.59163284	-35.55510712	-18.61921692	1.0
225	283.2879944	0	0	32.35028458	-39.48983002	-16.04277229	1.0
226	283.2879944	0	0	25.44214058	-39.78517914	-13.02665329	1.0
[LeftHandThumb1]
223	24.6609993	-15.75	26.8239994	-1.441468	-8.31926918	8.653962135	1.0
224	24.6609993	-15.75	26.8239994	-1.441469193	-8.31926918	8.653958321	1.0
225	24.6609993	-15.75	26.8239994	-1.441459298	-8.319266319	8.653960228	1.0
226	24.6609993	-15.75	26.8239994	-1.441461086	-8.319262505	8.653967857	1.0
[LeftHandThumb2]
223	32.29800034	-18.64699936	18.64699936	-0.9985907078	48.03614426	-30.10180283	1.0
224	32.29800034	-18.64699936	18.64699936	-0.9986233115	48.03616333	-30.10182762	1.0
225	32.29800034	-18.64699936	18.64699936	-0.9986227751	48.0361557	-30.10184097	1.0
226	32.29800034	-18.64699936	18.64699936	-0.9986272454	48.03616333	-30.10184288	1.0
[LeftHandThumb3]
223	26.52600098	-15.31499958	15.31499958	7.522169113	50.02408981	24.38758278	1.0
224	26.52600098	-15.31499958	15.31499958	7.52218008	50.02408218	24.38756943	1.0
225	26.52600098	-15.31499958	15.31499958	7.522160053	50.02407455	24.38757706	1.0
226	26.52600098	-15.31499958	15.31499958	7.522169113	50.02407455	24.38755035	1.0
[LeftHandThumb4]
223	19.54599953	-11.28499985	11.28499985	0	0	0	1.0
224	19.54599953	-11.28499985	11.28499985	0	0	0	1.0
225	19.54599953	-11.28499985	11.28499985	0	0	0	1.0
226	19.54599953	-11.28499985	11.28499985	0	0	0	1.0
[LeftHandIndex1]
223	91.09299469	-5.170999527	22.60099792	-1.706936955	9.272185326	-79.12529755	1.0
224	91.09299469	-5.170999527	22.60099792	-1.706923962	9.272193909	-79.12528229	1.0
225	91.09299469	-5.170999527	22.60099792	-1.706925035	9.272173882	-79.12528229	1.0
226	91.09299469	-5.170999527	22.60099792	-1.706905961	9.272193909	-79.12528229	1.0
[LeftHandIndex2]
223	36.76399994	0	0	-5.08423233	5.778064728	-82.67963409	1.0
224	36.76399994	0	0	-5.084231853	5.77804184	-82.67964172	1.0
225	36.76399994	0	0	-5.084227085	5.77806282	-82.67963409	1.0
226	36.76399994	0	0	-5.084218502	5.778037548	-82.67964172	1.0
[LeftHandIndex3]
223	28.83100128	0	0	-6.449684143	5.79175663	-96.164505	1.0
224	28.83100128	0	0	-6.4496665	5.791769028	-96.16448975	1.0
225	28.83100128	0	0	-6.449680328	5.791755676	-96.16448975	1.0
226	28.83100128	0	0	-6.449669838	5.791762829	-96.16446686	1.0
[LeftHandIndex4]
223	23.92700005	0	0	0	0	0	1.0
224	23.92700005	0	0	0	0	0	1.0
225	23.92700005	0	0	0	0	0	1.0
226	23.92700005	0	0	0	0	0	1.0
[LeftHandMiddle1]
223	95.33399963	0	0	-6.494763374	5.273262978	-74.30394745	1.0
224	95.33399963	0	0	-6.494757175	5.273269176	-74.30393982	1.0
225	95.33399963	0	0	-6.494753361	5.273253918	-74.30393219	1.0
226	95.33399963	0	0	-6.494747639	5.273263931	-74.30393219	1.0
[LeftHandMiddle2]
223	36.98199844	0	0	-7.583480358	5.554388523	-107.5965881	1.0
224	36.98199844	0	0	-7.583503723	5.554387569	-107.5965958	1.0
225	36.98199844	0	0	-7.583497047	5.554376125	-107.5966034	1.0
226	36.98199844	0	0	-7.583476543	5.554389	-107.5966034	1.0
[LeftHandMiddle3]
223	29.50900078	0	0	-4.044065952	5.547124863	-72.16721344	1.0
224	29.50900078	0	0	-4.044074535	5.547131538	-72.16720581	1.0
225	29.50900078	0	0	-4.044086933	5.547124386	-72.16721344	1.0
226	29.50900078	0	0	-4.04408884	5.547111988	-72.16722107	1.0
[LeftHandMiddle4]
223	28.3390007	0	0	0	0	0	1.0
224	28.3390007	0	0	0	0	0	1.0
225	28.3390007	0	0	0	0	0	1.0
226	28.3390007	0	0	0	0	0	1.0
[LeftHandRing1]
223	91.04499817	-0.4390000105	-18.65100098	-7.093603134	2.507949829	-79.76667786	1.0
224	91.04499817	-0.4390000105	-18.65100098	-7.093588352	2.507957697	-79.76669312	1.0
225	91.04499817	-0.4390000105	-18.65100098	-7.093589306	2.507955551	-79.76667786	1.0
226	91.04499817	-0.4390000105	-18.65100098	-7.093583584	2.507942915	-79.76667786	1.0
[LeftHandRing2]
223	31.54000092	0	0	-6.249159813	5.809815407	-94.18067169	1.0
224	31.54000092	0	0	-6.249145985	5.80982542	-94.18068695	1.0
225	31.54000092	0	0	-6.249140263	5.809799671	-94.18067932	1.0
226	31.54000092	0	0	-6.249155998	5.809819221	-94.18070221	1.0
[LeftHandRing3]
223	29.37700081	0	0	-2.898620367	5.038877487	-59.79808426	1.0
224	29.37700081	0	0	-2.8986094	5.038871765	-59.79806519	1.0
225	29.37700081	0	0	-2.898614883	5.03886652	-59.798069	1.0
226	29.37700081	0	0	-2.898602962	5.038876534	-59.79807281	1.0
[LeftHandRing4]
223	26.47500038	0	0	0	0	0	1.0
224	26.47500038	0	0	0	0	0	1.0
225	26.47500038	0	0	0	0	0	1.0
226	26.47500038	0	0	0	0	0	1.0
[LeftHandPinky1]
223	80.77799988	-4.887000084	-38.06099701	-15.7428112	5.236334324	-84.96307373	1.0
224	80.77799988	-4.887000084	-38.06099701	-15.74279499	5.236333847	-84.96305847	1.0
225	80.77799988	-4.887000084	-38.06099701	-15.7428112	5.23633194	-84.9630661	1.0
226	80.77799988	-4.887000084	-38.06099701	-15.74281502	5.236329556	-84.9630661	1.0
[LeftHandPinky2]
223	36	0	0	-2.465511084	4.761476994	-54.73121262	1.0
224	36	0	0	-2.465527534	4.761467457	-54.73120117	1.0
225	36	0	0	-2.465515137	4.761464119	-54.73118591	1.0
226	36	0	0	-2.465515852	4.761478901	-54.73121643	1.0
[LeftHandPinky3]
223	21.14200211	0	0	-4.929659843	5.756189823	-81.14131927	1.0
224	21.14200211	0	0	-4.929644585	5.756198406	-81.14134216	1.0
225	21.14200211	0	0	-4.929645061	5.756196499	-81.14135742	1.0
226	21.14200211	0	0	-4.929639339	5.756187439	-81.14134216	1.0
[LeftHandPinky4]
223	19.75699997	0	0	0	0	0	1.0
224	19.75699997	0	0	0	0	0	1.0
225	19.75699997	0	0	0	0	0	1.0
226	19.75699997	0	0	0	0	0	1.0
[RightShoulder]
223	-45.70000076	109.4620056	-26.28000069	2.502268314	3.052562714	-2.024528265	1.0
224	-45.70000076	109.4620056	-26.28000069	2.249869347	2.968814611	-5.254237175	1.0
225	-45.70000076	109.4620056	-26.28000069	2.700380564	2.197035074	1.638428807	1.0
226	-45.70000076	109.4620056	-26.28000069	3.112991095	-1.015421033	11.1446209	1.0
[RightArm]
223	-105.9280014	-5.248000145	-22.32099915	42.40786362	-25.54674721	54.19331741	1.0
224	-105.9280014	-5.248000145	-22.32099915	41.26040649	-24.92570305	57.42215729	1.0
225	-105.9280014	-5.248000145	-22.32099915	43.13599014	-26.30791473	46.04854965	1.0
226	-105.9280014	-5.248000145	-22.32099915	47.50922394	-25.10499191	30.0871582	1.0
[RightForeArm]
223	-278.414978	0	0	2.513615982e-06	80.32611084	2.91615379e-05	1.0
224	-278.414978	0	0	-1.498898746e-05	81.82531738	-1.311896085e-05	1.0
225	-278.414978	0	0	0.005197665188	89.98271942	0.01180449035	1.0
226	-278.414978	0	0	-4.577636719e-05	97.81198883	-4.577636719e-05	1.0
[RightHand]
223	-283.2879944	0	0.0009999999311	44.80686951	35.05745697	43.75937271	1.0
224	-283.2879944	0	0.0009999999311	46.13021088	32.24378204	41.83603287	1.0
225	-283.2879944	0	0.0009999999311	40.60683823	26.46705055	40.99571609	1.0
226	-283.2879944	0	0.0009999999311	31.62805176	21.72217369	42.24327469	1.0
[RightHandPinky1]
223	-80.76699829	-4.885000229	-38.06000137	-14.5164423	-4.04830265	84.21260834	1.0
224	-80.76699829	-4.885000229	-38.06000137	-14.51740074	-4.048333168	84.21492767	1.0
225	-80.76699829	-4.885000229	-38.06000137	-14.51732349	-4.048324585	84.21473694	1.0
226	-80.76699829	-4.885000229	-38.06000137	-14.51709461	-4.04831934	84.21418762	1.0
[RightHandPinky2]
223	-36	0	0.0009999999311	-1.960844994	-3.7848351	54.78261185	1.0
224	-36	0	0.0009999999311	-1.960836291	-3.784820557	54.78263474	1.0
225	-36	0	0.0009999999311	-1.960823298	-3.784831524	54.78263474	1.0
226	-36	0	0.0009999999311	-1.960848331	-3.784822702	54.78262329	1.0
[RightHandPinky3]
223	-21.14200211	0	0	-3.919518232	-4.57572794	81.15795135	1.0
224	-21.14200211	0	0	-3.919530392	-4.575726032	81.15794373	1.0
225	-21.14200211	0	0	-3.919516087	-4.575715542	81.15795898	1.0
226	-21.14200211	0	0	-3.919511795	-4.575722218	81.15795898	1.0
[RightHandPinky4]
223	-19.75699997	0	0	0	0	0	1.0
224	-19.75699997	0	0	0	0	0	1.0
225	-19.75699997	0	0	0	0	0	1.0
226	-19.75699997	0	0	0	0	0	1.0
[RightHandRing1]
223	-91.03599548	-0.4390000105	-18.65100098	-5.975711346	-1.320409298	79.02094269	1.0
224	-91.03599548	-0.4390000105	-18.65100098	-5.975917339	-1.320521355	79.02322388	1.0
225	-91.03599548	-0.4390000105	-18.65100098	-5.975897789	-1.320520163	79.02303314	1.0
226	-91.03599548	-0.4390000105	-18.65100098	-5.975845337	-1.320486784	79.02249908	1.0
[RightHandRing2]
223	-31.54000092	0	0	-4.967088223	-4.618300915	94.17275238	1.0
224	-31.54000092	0	0	-4.967079163	-4.618294239	94.17275238	1.0
225	-31.54000092	0	0	-4.967068672	-4.618288517	94.17274475	1.0
226	-31.54000092	0	0	-4.967091084	-4.618286133	94.17276001	1.0
[RightHandRing3]
223	-29.37700081	0	0	-2.306356907	-4.006083012	59.84557343	1.0
224	-29.37700081	0	0	-2.306356668	-4.006101608	59.84557343	1.0
225	-29.37700081	0	0	-2.306354046	-4.00609827	59.84558487	1.0
226	-29.37700081	0	0	-2.306351662	-4.006091118	59.8455658	1.0
[RightHandRing4]
223	-26.47500038	0	0	0	0	0	1.0
224	-26.47500038	0	0	0	0	0	1.0
225	-26.47500038	0	0	0	0	0	1.0
226	-26.47500038	0	0	0	0	0	1.0
[RightHandMiddle1]
223	-95.32500458	0	0	-5.490038395	-4.098331928	73.57112122	1.0
224	-95.32500458	0	0	-5.490229607	-4.098559856	73.5734787	1.0
225	-95.32500458	0	0	-5.490226269	-4.098527908	73.57327271	1.0
226	-95.32500458	0	0	-5.490181446	-4.098484039	73.57272339	1.0
[RightHandMiddle2]
223	-36.98199844	0	0	-6.026585102	-4.415503025	107.5651169	1.0
224	-36.98199844	0	0	-6.026574612	-4.415498734	107.5651169	1.0
225	-36.98199844	0	0	-6.026578426	-4.415482998	107.5651321	1.0
226	-36.98199844	0	0	-6.026574612	-4.415512085	107.5651093	1.0
[RightHandMiddle3]
223	-29.50900078	0	0	-3.216317415	-4.411744118	72.19915771	1.0
224	-29.50900078	0	0	-3.216337204	-4.411735058	72.1991806	1.0
225	-29.50900078	0	0	-3.216320753	-4.411750793	72.19916534	1.0
226	-29.50900078	0	0	-3.216314316	-4.411756039	72.19915771	1.0
[RightHandMiddle4]
223	-28.3390007	0	0.0009999999311	0	0	0	1.0
224	-28.3390007	0	0.0009999999311	0	0	0	1.0
225	-28.3390007	0	0.0009999999311	0	0	0	1.0
226	-28.3390007	0	0.0009999999311	0	0	0	1.0
[RightHandIndex1]
223	-91.08300018	-5.167999744	22.60099792	-0.602648735	-8.085555077	78.39064026	1.0
224	-91.08300018	-5.167999744	22.60099792	-0.6036054492	-8.085690498	78.39303589	1.0
225	-91.08300018	-5.167999744	22.60099792	-0.6035280824	-8.085672379	78.39283752	1.0
226	-91.08300018	-5.167999744	22.60099792	-0.6033039093	-8.085634232	78.39226532	1.0
[RightHandIndex2]
223	-36.76399994	0	0	-4.042240143	-4.593071938	82.69343567	1.0
224	-36.76399994	0	0	-4.042229652	-4.593074799	82.69343567	1.0
225	-36.76399994	0	0	-4.042232037	-4.593085766	82.69343567	1.0
226	-36.76399994	0	0	-4.042234421	-4.59307909	82.69345093	1.0
[RightHandIndex3]
223	-28.83100128	0	0	-5.126292229	-4.603952885	96.1528244	1.0
224	-28.83100128	0	0	-5.126302242	-4.603940487	96.1528244	1.0
225	-28.83100128	0	0	-5.12628603	-4.60395813	96.15283966	1.0
226	-28.83100128	0	0	-5.126279831	-4.603961945	96.15281677	1.0
[RightHandIndex4]
223	-23.92700005	0	0	0	0	0	1.0
224	-23.92700005	0	0	0	0	0	1.0
225	-23.92700005	0	0	0	0	0	1.0
226	-23.92700005	0	0	0	0	0	1.0
[RightHandThumb1]
223	-24.64799881	-15.72700024	26.82600021	-2.388295412	10.16931057	-8.288759232	1.0
224	-24.64799881	-15.72700024	26.82600021	-2.388212681	10.16835213	-8.286477089	1.0
225	-24.64799881	-15.72700024	26.82600021	-2.388225555	10.1684351	-8.286667824	1.0
226	-24.64799881	-15.72700024	26.82600021	-2.38826108	10.16866207	-8.287214279	1.0
[RightHandThumb2]
223	-32.29800034	-18.64699936	18.64699936	-2.05929637	-49.39984894	30.22302818	1.0
224	-32.29800034	-18.64699936	18.64699936	-2.059280157	-49.3998642	30.22304916	1.0
225	-32.29800034	-18.64699936	18.64699936	-2.059267282	-49.39986038	30.22301292	1.0
226	-32.29800034	-18.64699936	18.64699936	-2.059283972	-49.39985657	30.22304726	1.0
[RightHandThumb3]
223	-26.52600098	-15.31399918	15.31399918	13.49724293	-55.14929962	-27.72499657	1.0
224	-26.52600098	-15.31399918	15.31399918	13.4972353	-55.14929581	-27.72499466	1.0
225	-26.52600098	-15.31399918	15.31399918	13.49725151	-55.14930344	-27.72500229	1.0
226	-26.52600098	-15.31399918	15.31399918	13.49727535	-55.14929199	-27.72501183	1.0
[RightHandThumb4]
223	-19.54599953	-11.28499985	11.28499985	0	0	0	1.0
224	-19.54599953	-11.28499985	11.28499985	0	0	0	1.0
225	-19.54599953	-11.28499985	11.28499985	0	0	0	1.0
226	-19.54599953	-11.28499985	11.28499985	0	0	0	1.0
[LeftUpLeg]
223	82.07800293	-67.51699829	-15.99599934	-37.46166992	15.3424015	13.80693626	1.0
224	82.07800293	-67.51699829	-15.99599934	-30.12625694	14.44287682	20.12168503	1.0
225	82.07800293	-67.51699829	-15.99599934	-23.63195992	17.67799759	22.60713196	1.0
226	82.07800293	-67.51699829	-15.99599934	-23.21654892	19.90045929	21.45559502	1.0
[LeftLeg]
223	0	-443.7049866	2.845999956	46.6026001	2.616753101	4.380968571	1.0
224	0	-443.7049866	2.845999956	31.64539909	0.5950280428	1.455765128	1.0
225	0	-443.7049866	2.845999956	16.12909126	-2.148714304	0.1706176996	1.0
226	0	-443.7049866	2.845999956	11.5898428	-0.6353035569	0.7354615927	1.0
[LeftFoot]
223	0	-444.2789917	-29.8219986	5.202197552	-0.7438018322	-9.591687202	1.0
224	0	-444.2789917	-29.8219986	9.269220352	-0.639990747	-8.977487564	1.0
225	0	-444.2789917	-29.8219986	16.43523026	0.6753975749	-12.98251057	1.0
226	0	-444.2789917	-29.8219986	13.66703415	0.7232557535	-15.53277111	1.0
[LeftToeBase]
223	0	-87.28699493	107.1060028	-1.174233317	-7.525961337e-06	1.034623551e-06	1.0
224	0	-87.28699493	107.1060028	-3.390612125	-2.335821364e-06	5.839575806e-06	1.0
225	0	-87.28699493	107.1060028	-6.310388565	-3.29806403e-06	-1.460242629e-06	1.0
226	0	-87.28699493	107.1060028	-5.857639313	1.190168973e-06	7.469537195e-06	1.0
[RightUpLeg]
223	-82.07800293	-67.51699829	-15.99599934	-18.50726318	-4.801084518	1.493685007	1.0
224	-82.07800293	-67.51699829	-15.99599934	-16.5141201	-15.32025433	-0.3637523353	1.0
225	-82.07800293	-67.51699829	-15.99599934	-15.07344437	-21.99323845	-9.500437737	1.0
226	-82.07800293	-67.51699829	-15.99599934	-13.93664742	-20.21273804	-20.59082222	1.0
[RightLeg]
223	0	-443.7049866	2.861999989	34.78692245	-7.166256428	-3.78949523	1.0
224	0	-443.7049866	2.861999989	38.57672882	-5.075469017	-1.780421019	1.0
225	0	-443.7049866	2.861999989	37.56040573	0.3088653088	3.975142956	1.0
226	0	-443.7049866	2.861999989	30.50978279	2.982009411	5.300070763	1.0
[RightFoot]
223	0	-444.2770081	-29.83799934	-23.6575737	-12.90921688	5.644816875	1.0
224	0	-444.2770081	-29.83799934	-14.35374355	1.926006913	4.624641895	1.0
225	0	-444.2770081	-29.83799934	7.56546402	16.2487793	20.81807137	1.0
226	0	-444.2770081	-29.83799934	21.25829315	12.72346306	32.05799103	1.0
[RightToeBase]
223	0	-87.28699493	107.1060028	-2.150839806	-8.019124834e-06	2.652686071e-08	1.0
224	0	-87.28699493	107.1060028	-14.43079853	2.958858886e-06	1.028103384e-06	1.0
225	0	-87.28699493	107.1060028	-24.8728447	-0.7684471607	-1.749823093	1.0
226	0	-87.28699493	107.1060028	-13.18701363	2.162648798e-06	-2.850796818e-06	1.0
[EndOfFile]
